<?xml version="1.0" standalone="no"?>
<!DOCTYPE svg PUBLIC "-//W3C//DTD SVG 20010904//EN"
 "http://www.w3.org/TR/2001/REC-SVG-20010904/DTD/svg10.dtd">
<svg version="1.0" xmlns="http://www.w3.org/2000/svg"
 width="560pt" height="230pt" viewBox="0 0 5728.000000 2480.000000"
 preserveAspectRatio="xMidYMid meet">

<g transform="translate(0.000000,2480.000000) scale(0.100000,-0.100000)"
fill="#000000" stroke="none">
<path d="M14120 22740 c-806 -65 -1494 -253 -2190 -600 -1438 -716 -2508
-2010 -2954 -3574 -146 -510 -216 -1017 -216 -1567 0 -1137 341 -2257 975
-3199 220 -327 406 -553 704 -851 305 -304 442 -418 922 -765 151 -109 391
-283 534 -387 143 -103 497 -360 788 -570 290 -210 655 -475 812 -588 157
-113 287 -208 290 -210 2 -3 -85 -2005 -195 -4449 -110 -2444 -198 -4445 -196
-4447 5 -5 26030 3520 26038 3526 6 5 -3915 10757 -3926 10768 -3 4 -2280
-348 -2284 -352 -4 -3 88 -598 92 -603 2 -1 397 58 878 133 481 74 883 135
894 135 16 0 273 -694 1767 -4786 962 -2632 1747 -4787 1745 -4789 -2 -1
-4300 -584 -9553 -1294 l-9550 -1292 -75 -39 c-54 -27 -123 -49 -250 -79 -247
-58 -248 -58 -394 -26 l-125 27 -2301 -311 c-1266 -172 -2304 -310 -2307 -307
-5 5 336 7687 343 7723 5 25 5 25 579 -392 143 -104 496 -360 785 -569 289
-209 670 -485 847 -613 177 -128 325 -233 329 -233 3 0 3 24 0 53 -43 357
-116 1503 -136 2122 -6 182 -17 537 -26 790 -9 253 -13 483 -10 511 9 81 95
433 120 495 28 70 160 261 238 344 73 78 325 259 445 319 123 62 228 95 483
155 394 91 618 127 894 141 104 5 190 11 192 12 1 2 110 271 242 598 132 327
282 696 332 820 195 476 242 601 311 833 165 546 241 1070 241 1647 -1 759
-136 1457 -418 2159 -426 1056 -1154 1958 -2104 2602 -444 301 -917 533 -1440
705 -379 125 -797 214 -1215 259 -173 19 -787 28 -955 15z m1156 -2423 c283
-61 545 -323 683 -682 75 -198 103 -355 103 -585 -1 -343 -88 -635 -257 -864
-66 -88 -181 -202 -246 -241 -174 -107 -376 -147 -546 -110 -158 34 -325 133
-436 257 -88 98 -90 102 -118 144 -156 235 -227 450 -249 747 -33 447 113 880
379 1129 69 64 151 128 166 128 3 0 24 12 48 27 69 44 179 68 298 67 57 -1
136 -9 175 -17z m-2566 -748 c111 -23 280 -94 380 -162 56 -37 169 -135 234
-202 197 -203 340 -485 407 -807 42 -199 25 -459 -41 -641 -95 -258 -259 -416
-502 -482 -91 -24 -114 -27 -203 -22 -152 8 -234 31 -380 103 -270 133 -477
349 -633 659 -33 66 -73 161 -90 210 -80 233 -98 551 -42 760 28 104 95 244
154 322 166 219 437 318 716 262z m4725 -586 c115 -26 195 -69 298 -161 88
-78 190 -218 212 -292 5 -14 18 -41 30 -60 23 -38 57 -148 50 -161 -3 -4 2
-42 10 -86 33 -174 9 -450 -56 -646 -39 -116 -112 -260 -179 -356 -64 -90
-195 -222 -258 -258 -26 -15 -60 -37 -77 -49 -43 -31 -155 -73 -238 -89 -93
-18 -258 -7 -340 23 -178 64 -339 208 -433 387 -11 22 -29 55 -38 73 -33 61
-77 236 -87 342 -18 181 9 445 58 575 101 268 175 388 332 538 78 73 228 177
258 177 6 0 30 9 55 19 103 46 263 56 403 24z m-2650 -1588 c264 -20 528 -155
840 -429 39 -34 83 -72 100 -85 16 -12 66 -55 110 -95 131 -119 155 -139 275
-232 202 -157 303 -221 520 -329 395 -198 661 -406 842 -660 81 -114 104 -154
166 -290 79 -175 96 -256 97 -470 0 -169 -2 -186 -28 -275 -50 -167 -144 -342
-239 -444 -21 -23 -38 -44 -38 -48 0 -14 -184 -157 -240 -187 -32 -17 -60 -36
-62 -41 -5 -15 -386 -121 -411 -114 -13 3 -52 0 -89 -6 -36 -5 -221 -12 -410
-15 -646 -9 -836 -47 -1227 -239 -60 -30 -121 -62 -137 -73 -37 -24 -60 -38
-106 -63 -20 -11 -56 -33 -81 -49 -24 -17 -73 -47 -108 -67 -35 -20 -80 -46
-99 -57 -98 -57 -192 -107 -238 -127 -29 -12 -52 -26 -52 -30 0 -4 -8 -10 -17
-13 -358 -106 -434 -118 -606 -96 -146 18 -351 100 -480 192 -100 71 -224 203
-298 317 -42 64 -99 179 -99 198 0 8 -6 28 -14 45 -89 198 -100 597 -25 877
57 212 153 432 271 621 202 322 288 517 488 1094 97 281 189 495 273 635 145
242 292 377 512 469 102 43 117 47 255 71 115 20 207 29 245 24 11 -1 61 -5
110 -9z m-3148 -61 c418 -82 820 -468 953 -915 132 -444 -26 -869 -380 -1017
-93 -39 -111 -43 -235 -49 -255 -12 -489 72 -722 260 -114 92 -237 231 -295
334 -17 29 -34 56 -39 59 -5 3 -16 21 -24 40 -8 19 -21 41 -28 49 -14 13 -117
363 -119 401 0 10 2 71 6 134 20 331 149 539 409 664 138 65 285 78 474 40z"/>
<path d="M31462 17095 c-174 -33 -201 -86 -256 -500 -63 -468 -80 -741 -80
-1225 0 -522 10 -596 86 -653 34 -26 135 -35 178 -17 58 24 61 42 50 312 -5
134 -12 284 -15 334 -5 68 -3 93 7 101 7 6 67 14 133 17 66 4 163 12 215 17
85 8 96 7 111 -8 9 -10 30 -70 48 -133 18 -63 42 -135 53 -158 53 -112 203
-145 298 -66 41 35 40 51 -20 346 -66 321 -127 568 -244 973 -97 340 -143 464
-197 540 -77 107 -209 150 -367 120z m111 -555 c55 -143 133 -380 187 -570 23
-80 47 -162 53 -183 14 -48 7 -53 -87 -62 -39 -4 -118 -13 -175 -21 -57 -7
-108 -11 -113 -8 -13 8 3 307 37 734 20 241 22 257 40 239 8 -8 34 -66 58
-129z"/>
<path d="M29515 16985 c-43 -24 -65 -45 -86 -87 -25 -48 -26 -70 -16 -398 21
-740 55 -1143 138 -1655 47 -290 69 -342 150 -365 89 -26 204 0 216 49 4 14
-4 123 -16 241 -49 462 -65 724 -77 1245 -5 258 -4 288 9 270 8 -11 79 -189
157 -395 150 -397 228 -569 430 -940 112 -206 156 -266 216 -295 69 -33 120
-12 167 68 23 39 26 58 37 243 20 355 -23 1663 -61 1831 -15 71 -39 121 -66
138 -14 10 -55 19 -96 22 -62 4 -78 1 -116 -19 -78 -40 -86 -60 -85 -206 1
-70 9 -183 19 -252 22 -169 125 -1213 119 -1219 -9 -9 -24 16 -90 149 -98 199
-172 370 -259 600 -103 273 -188 466 -300 690 -97 192 -135 243 -204 276 -51
25 -148 29 -186 9z"/>
<path d="M28853 16891 c-70 -32 -77 -71 -43 -237 74 -361 110 -646 117 -944 8
-339 -24 -713 -73 -853 -25 -70 -102 -137 -158 -137 -31 0 -127 104 -160 174
-111 235 -151 667 -127 1372 17 497 9 539 -112 600 -69 36 -128 36 -200 0 -67
-32 -112 -83 -132 -148 -20 -69 -39 -391 -32 -553 19 -412 30 -514 93 -830 58
-289 119 -466 222 -642 116 -198 268 -280 474 -253 126 16 145 27 255 158 83
98 99 134 137 304 48 215 58 301 63 579 8 381 -10 603 -78 999 -54 313 -81
389 -145 416 -43 18 -50 17 -101 -5z"/>
<path d="M26110 16560 c-116 -16 -218 -42 -272 -69 -79 -39 -98 -83 -110 -259
-13 -184 -3 -779 16 -972 34 -339 130 -862 176 -962 18 -39 57 -48 209 -48
283 1 387 21 459 89 27 25 33 37 30 63 -5 49 -32 58 -183 58 -71 0 -136 4
-143 8 -13 9 -53 241 -71 417 -12 109 -61 782 -61 824 0 51 10 56 142 61 98 5
132 10 163 26 79 41 67 105 -28 150 -45 21 -67 24 -166 24 l-114 0 6 83 c4 45
9 135 13 200 6 97 9 117 23 118 9 1 63 1 121 0 150 -3 240 28 240 84 0 29 -46
71 -100 91 -54 19 -252 27 -350 14z"/>
<path d="M23881 16461 c-52 -18 -69 -34 -83 -76 -10 -32 -9 -434 2 -620 35
-589 159 -1305 278 -1602 24 -60 32 -71 72 -91 82 -43 200 -15 268 63 18 20
32 46 32 59 0 13 -15 66 -34 118 -46 127 -97 341 -140 588 -88 504 -126 838
-95 828 6 -2 39 -80 73 -173 84 -227 124 -321 212 -503 57 -118 86 -165 123
-202 77 -77 146 -77 185 -2 33 65 130 505 201 917 14 83 30 1 65 -340 35 -346
51 -610 56 -925 3 -168 9 -319 15 -336 16 -53 53 -79 110 -78 108 1 152 75
179 299 18 148 24 537 11 712 -50 651 -74 894 -107 1076 -19 102 -53 157 -118
190 -84 44 -198 28 -250 -34 -51 -60 -101 -236 -151 -529 -20 -113 -53 -290
-74 -395 l-38 -190 -47 100 c-73 153 -168 400 -246 636 -44 132 -87 242 -112
287 -110 191 -249 272 -387 223z"/>
<path d="M22832 16325 c-174 -33 -201 -86 -256 -500 -63 -468 -80 -741 -80
-1225 0 -522 10 -596 86 -653 34 -26 135 -35 178 -17 58 24 61 42 50 312 -5
134 -12 284 -15 334 -5 68 -3 93 7 101 7 6 67 14 133 17 66 4 163 12 215 17
85 8 96 7 111 -8 9 -10 30 -70 48 -133 18 -63 42 -135 53 -158 53 -112 203
-145 298 -66 41 35 40 51 -20 346 -66 321 -127 568 -244 973 -97 340 -143 464
-197 540 -77 107 -209 150 -367 120z m111 -555 c55 -143 133 -380 187 -570 23
-80 47 -162 53 -183 14 -48 7 -53 -87 -62 -39 -4 -118 -13 -175 -21 -57 -7
-108 -11 -113 -8 -13 8 3 307 37 734 20 241 22 257 40 239 8 -8 34 -66 58
-129z"/>
<path d="M21295 16161 c-119 -31 -189 -127 -207 -284 -22 -193 6 -810 58
-1272 27 -247 109 -677 140 -737 21 -41 53 -58 107 -58 61 0 109 20 172 73
274 228 471 464 595 712 118 236 173 438 173 635 1 178 -45 404 -110 540 -84
175 -298 322 -548 375 -87 19 -332 29 -380 16z m342 -227 c107 -36 213 -121
278 -224 63 -100 110 -279 121 -465 12 -197 -35 -419 -132 -622 -58 -122 -174
-293 -252 -373 -58 -59 -65 -63 -72 -45 -14 37 -35 548 -55 1340 -3 116 -11
251 -17 302 -6 51 -8 99 -5 107 6 16 44 10 134 -20z"/>
<path d="M31830 13664 c-14 -3 -119 -20 -234 -39 -194 -32 -215 -38 -302 -80
-146 -71 -274 -203 -339 -350 -43 -97 -141 -580 -194 -955 -170 -1209 -254
-2107 -312 -3320 -16 -351 -23 -1689 -10 -2105 13 -419 52 -908 81 -1030 54
-220 194 -362 401 -409 260 -59 494 -7 591 133 58 83 73 167 59 333 -6 73 -16
264 -22 423 -6 160 -23 591 -39 959 -29 660 -29 670 -11 712 31 69 60 79 223
76 179 -3 444 11 855 48 185 17 362 30 392 30 60 0 111 -23 130 -59 6 -11 65
-208 131 -438 96 -332 130 -439 169 -518 79 -161 181 -264 336 -341 202 -101
397 -94 627 21 40 20 88 48 107 62 45 35 88 105 102 168 14 61 17 39 -107 670
-276 1399 -475 2218 -855 3513 -138 472 -204 702 -248 875 -74 284 -180 581
-306 857 -121 264 -236 421 -394 540 -124 93 -307 171 -483 205 -84 16 -302
28 -348 19z m3 -1572 c32 -75 232 -603 299 -792 202 -565 413 -1257 543 -1780
41 -165 43 -173 97 -292 44 -98 58 -180 39 -227 -17 -40 -45 -46 -404 -82
-288 -29 -609 -68 -726 -89 -79 -14 -147 -12 -164 5 -10 9 -13 28 -11 57 2 24
11 189 19 368 39 818 102 1716 187 2635 16 174 26 246 37 262 l16 21 26 -25
c15 -13 34 -41 42 -61z"/>
<path d="M28840 13465 c-732 -47 -1298 -105 -1952 -200 -134 -20 -292 -42
-353 -50 -352 -47 -538 -124 -692 -289 -104 -110 -154 -254 -133 -379 25 -152
56 -222 126 -287 80 -74 252 -140 365 -140 26 0 200 36 386 80 362 86 425 94
444 59 6 -13 17 -139 25 -298 14 -266 20 -318 179 -1431 207 -1450 222 -1573
290 -2280 41 -428 80 -754 130 -1085 32 -212 50 -317 120 -715 93 -523 224
-906 402 -1174 180 -270 358 -350 626 -282 261 66 450 242 532 496 47 146 65
281 65 495 1 203 -17 368 -80 745 -37 222 -71 464 -85 610 -4 36 -22 162 -40
280 -116 735 -219 1561 -295 2375 -12 121 -68 674 -126 1228 -111 1075 -120
1214 -85 1259 38 48 140 64 481 78 611 24 748 42 855 108 167 103 249 325 185
497 -47 126 -124 212 -235 265 -163 77 -366 84 -1135 35z"/>
<path d="M23740 12944 c-14 -3 -119 -20 -234 -39 -194 -32 -215 -38 -302 -80
-146 -71 -274 -203 -339 -350 -43 -97 -141 -580 -194 -955 -170 -1209 -254
-2107 -312 -3320 -16 -351 -23 -1689 -10 -2105 13 -419 52 -908 81 -1030 54
-220 194 -362 401 -409 260 -59 494 -7 591 133 58 83 73 167 59 333 -6 73 -16
264 -22 423 -6 160 -23 591 -39 959 -29 660 -29 670 -11 712 31 69 60 79 223
76 179 -3 444 11 855 48 185 17 362 30 392 30 60 0 111 -23 130 -59 6 -11 65
-208 131 -438 96 -332 130 -439 169 -518 79 -161 181 -264 336 -341 202 -101
397 -94 627 21 40 20 88 48 107 62 45 35 88 105 102 168 14 61 17 39 -107 670
-276 1399 -475 2218 -855 3513 -138 472 -204 702 -248 875 -74 284 -180 581
-306 857 -121 264 -236 421 -394 540 -124 93 -307 171 -483 205 -84 16 -302
28 -348 19z m3 -1572 c32 -75 232 -603 299 -792 202 -565 413 -1257 543 -1780
41 -165 43 -173 97 -292 44 -98 58 -180 39 -227 -17 -40 -45 -46 -404 -82
-288 -29 -609 -68 -726 -89 -79 -14 -147 -12 -164 5 -10 9 -13 28 -11 57 2 24
11 189 19 368 39 818 102 1716 187 2635 16 174 26 246 37 262 l16 21 26 -25
c15 -13 34 -41 42 -61z"/>
<path d="M19256 12444 c-414 -12 -553 -24 -796 -65 -365 -63 -555 -127 -745
-254 -109 -72 -184 -155 -235 -258 -76 -155 -78 -182 -55 -832 8 -231 19 -571
25 -755 44 -1366 192 -2895 395 -4090 25 -146 74 -437 110 -647 176 -1047 269
-1366 501 -1718 157 -238 267 -330 421 -351 197 -26 431 145 547 398 44 96 63
177 77 328 22 243 13 338 -125 1256 -69 462 -126 854 -126 871 0 60 42 77 281
113 575 87 1123 398 1559 885 127 142 317 384 408 520 195 292 333 679 374
1049 14 129 -3 682 -28 901 -103 920 -399 1638 -869 2111 -264 266 -580 437
-940 509 -107 21 -154 27 -315 39 -25 2 -233 -3 -464 -10z m-4 -834 c254 -53
463 -161 643 -332 125 -118 176 -188 260 -356 242 -484 358 -979 342 -1462
-14 -413 -123 -783 -318 -1080 -92 -140 -298 -343 -454 -446 -180 -119 -455
-254 -520 -254 -64 0 -115 55 -141 153 -7 28 -43 383 -78 787 -55 628 -65 779
-70 1035 -7 416 -49 1255 -88 1750 -13 176 -9 201 35 221 44 20 259 12 389
-16z"/>
</g>
</svg>
