<?xml version="1.0" standalone="no"?>
<!DOCTYPE svg PUBLIC "-//W3C//DTD SVG 20010904//EN"
 "http://www.w3.org/TR/2001/REC-SVG-20010904/DTD/svg10.dtd">
<svg version="1.0" xmlns="http://www.w3.org/2000/svg"
 width="5728.000000pt" height="2480.000000pt" viewBox="0 0 5728.000000 2480.000000"
 preserveAspectRatio="xMidYMid meet">

<g transform="translate(0.000000,2480.000000) scale(0.100000,-0.100000)"
fill="#000000" stroke="none">
<path d="M14249 22746 c-2 -2 -53 -6 -114 -10 -60 -4 -123 -8 -140 -10 -16 -2
-61 -7 -100 -10 -38 -4 -95 -11 -125 -16 -30 -5 -77 -12 -105 -15 -27 -4 -59
-8 -70 -10 -11 -2 -36 -6 -55 -9 -19 -3 -82 -15 -140 -27 -58 -12 -123 -25
-145 -29 -22 -4 -74 -16 -115 -27 -41 -11 -100 -26 -130 -33 -114 -26 -546
-171 -657 -221 -23 -11 -44 -19 -47 -19 -3 0 -35 -13 -71 -30 -36 -16 -68 -30
-70 -30 -9 0 -346 -167 -423 -209 -1181 -648 -2094 -1690 -2590 -2956 -35 -88
-127 -354 -138 -395 -2 -8 -15 -53 -29 -100 -22 -73 -78 -292 -91 -355 -2 -11
-6 -29 -8 -40 -36 -160 -75 -412 -92 -578 -3 -34 -7 -73 -10 -87 -25 -157 -25
-829 0 -1035 2 -16 7 -66 11 -110 3 -43 8 -82 10 -85 2 -3 6 -32 9 -65 25
-232 122 -669 212 -950 54 -168 144 -416 155 -429 5 -6 9 -16 9 -23 0 -7 12
-38 26 -70 14 -32 30 -67 34 -78 19 -46 202 -414 231 -465 204 -359 417 -666
668 -960 106 -125 371 -397 501 -515 79 -73 286 -243 350 -290 30 -22 57 -42
60 -45 4 -5 344 -254 453 -332 215 -155 441 -318 702 -508 177 -129 333 -242
345 -250 19 -13 213 -153 395 -285 28 -20 183 -133 345 -250 162 -118 339
-246 393 -285 l99 -72 -7 -106 c-13 -223 -395 -8786 -391 -8789 5 -5 26030
3520 26038 3526 6 5 -3915 10757 -3926 10768 -3 4 -2280 -348 -2285 -352 -2
-2 15 -115 37 -252 23 -136 44 -271 48 -300 6 -49 8 -52 33 -47 63 11 1766
273 1767 271 5 -7 3488 -9546 3492 -9564 3 -19 -1 -22 -39 -28 -24 -3 -4326
-586 -9559 -1294 l-9515 -1289 -50 -31 c-50 -31 -128 -54 -356 -105 -143 -32
-186 -32 -319 -1 l-105 24 -2302 -311 c-1267 -171 -2306 -308 -2310 -305 -3 4
71 1736 166 3850 94 2113 172 3854 171 3870 0 15 5 27 12 27 6 0 43 -23 82
-52 39 -28 184 -132 321 -231 138 -99 412 -298 610 -442 198 -144 434 -315
525 -380 144 -104 570 -412 890 -645 l105 -76 -22 250 c-29 336 -69 909 -88
1241 -27 508 -69 1814 -62 1954 6 124 79 444 124 545 34 74 166 261 237 334
77 80 327 257 441 313 131 63 212 89 463 149 426 100 766 150 1023 150 64 0
80 3 88 18 8 16 122 296 446 1102 122 304 200 493 235 575 5 11 25 63 45 115
20 52 45 115 55 140 29 73 158 498 175 576 2 10 17 82 34 159 48 220 83 432
97 585 3 41 8 77 9 80 2 3 7 64 12 135 15 242 8 836 -12 967 -2 13 -6 52 -10
88 -41 399 -137 817 -294 1285 -12 33 -25 68 -31 77 -5 10 -10 23 -10 29 0 6
-6 25 -14 42 -7 18 -30 73 -51 122 -78 188 -87 208 -170 375 -86 173 -163 313
-255 460 -5 8 -21 34 -35 57 -21 36 -96 146 -189 278 -85 121 -204 269 -373
465 -92 106 -400 409 -518 509 -60 52 -123 105 -139 119 -48 41 -293 223 -396
293 -352 240 -677 412 -1130 598 -225 92 -623 214 -869 266 -9 2 -47 10 -86
19 -38 8 -90 17 -115 21 -25 3 -52 8 -60 10 -8 2 -33 6 -55 9 -22 4 -51 8 -65
11 -33 6 -82 12 -155 21 -33 3 -67 8 -76 9 -8 2 -55 6 -105 10 -49 4 -98 9
-109 12 -23 5 -661 14 -666 9z m995 -2442 c144 -26 275 -98 413 -228 103 -97
214 -261 258 -381 11 -27 25 -60 32 -71 19 -30 73 -222 73 -259 0 -16 6 -61
13 -100 17 -91 13 -373 -7 -475 -31 -159 -43 -206 -54 -227 -7 -12 -12 -29
-12 -39 0 -9 -16 -50 -35 -90 -19 -40 -35 -77 -35 -82 0 -6 -30 -54 -66 -109
-238 -353 -592 -489 -924 -354 -25 11 -64 27 -87 36 -24 10 -56 30 -73 44 -16
14 -48 39 -70 54 -47 33 -196 207 -225 264 -11 21 -37 65 -58 98 -56 89 -142
378 -155 520 -17 180 -3 449 28 560 5 17 14 50 21 75 39 149 124 322 212 438
64 84 189 205 236 229 20 10 47 25 61 34 55 37 206 72 334 78 15 0 69 -6 120
-15z m-2604 -744 c95 -11 144 -25 280 -83 125 -52 244 -137 379 -267 42 -41
128 -147 157 -193 18 -29 40 -62 49 -75 47 -65 134 -264 169 -385 9 -31 28
-111 41 -176 38 -188 25 -423 -32 -591 -45 -130 -106 -233 -192 -323 -98 -102
-219 -161 -391 -192 -62 -11 -89 -11 -165 1 -139 21 -198 33 -209 44 -6 6 -16
10 -24 10 -19 0 -134 56 -202 99 -127 79 -345 293 -377 368 -7 18 -17 33 -21
33 -11 0 -53 71 -120 202 -107 207 -154 418 -155 688 0 124 4 159 26 242 14
53 39 125 56 160 17 34 31 66 31 70 0 4 23 42 52 84 100 147 238 235 438 280
70 15 106 16 210 4z m4741 -586 c129 -21 250 -80 345 -167 116 -106 220 -279
262 -437 57 -217 56 -417 -4 -720 -6 -31 -48 -140 -92 -240 -16 -37 -90 -161
-101 -170 -3 -3 -19 -23 -34 -46 -43 -63 -174 -186 -256 -238 -150 -96 -230
-121 -396 -121 -137 0 -185 11 -297 67 -83 41 -109 60 -199 150 -146 145 -250
390 -266 628 -8 120 -8 100 11 320 12 145 127 431 239 597 79 119 283 288 396
330 25 9 51 20 56 24 13 9 148 32 221 38 11 0 63 -6 115 -15z m-2578 -1598
c43 -3 83 -8 88 -12 6 -3 38 -12 73 -19 34 -7 90 -27 126 -44 35 -17 68 -31
74 -31 13 0 99 -52 207 -124 68 -46 145 -108 274 -221 28 -24 66 -57 86 -72
35 -28 48 -39 139 -123 45 -42 240 -199 315 -255 124 -93 309 -206 452 -275
249 -122 382 -207 553 -356 270 -235 452 -528 515 -832 8 -40 15 -82 15 -95 0
-12 0 -65 0 -117 1 -120 -15 -225 -47 -315 -50 -143 -56 -155 -64 -155 -5 0
-9 -8 -9 -19 0 -18 -58 -103 -137 -204 -108 -137 -318 -283 -483 -336 -76 -25
-267 -60 -327 -60 -24 0 -47 -3 -53 -6 -6 -4 -153 -8 -328 -11 -174 -2 -351
-6 -392 -9 -271 -16 -536 -67 -655 -125 -34 -17 -65 -30 -70 -30 -4 0 -63 -27
-132 -60 -68 -33 -128 -60 -132 -60 -5 0 -14 -7 -21 -15 -7 -8 -46 -34 -88
-56 -41 -23 -104 -62 -140 -86 -35 -23 -68 -43 -73 -43 -8 0 -94 -50 -141 -82
-60 -40 -249 -132 -358 -173 -141 -53 -244 -74 -375 -77 -186 -4 -195 -2 -414
77 -63 23 -96 41 -186 103 -178 123 -319 294 -390 473 -21 52 -42 101 -46 109
-14 24 -39 122 -34 130 2 4 -2 38 -10 76 -24 114 -20 372 9 529 13 72 33 151
44 175 11 25 23 61 26 80 7 41 43 135 93 240 41 87 153 280 162 280 4 0 20 26
36 58 16 31 38 71 50 87 20 28 48 83 124 245 41 88 53 119 130 335 12 33 30
80 40 105 22 53 40 104 51 145 5 17 21 62 35 100 14 39 37 99 49 135 43 118
56 151 86 210 17 33 30 66 30 75 0 17 132 256 153 277 7 7 27 33 44 58 139
203 419 360 698 391 49 6 91 12 93 13 3 3 130 -1 235 -8z m-3206 -49 c5 -3 41
-13 79 -21 39 -8 90 -23 115 -34 24 -11 60 -26 79 -33 133 -49 371 -244 479
-391 112 -154 177 -279 220 -427 130 -439 -12 -837 -357 -1001 -91 -43 -131
-51 -255 -51 -146 0 -284 27 -404 80 -83 36 -170 84 -183 100 -3 3 -23 18 -45
33 -161 106 -360 342 -439 520 -32 72 -72 202 -96 309 -57 257 17 566 173 721
122 121 247 184 392 198 85 8 227 6 242 -3z"/>
<path d="M31470 17094 c-96 -19 -154 -55 -184 -113 -43 -83 -113 -596 -147
-1076 -7 -93 -12 -334 -13 -535 0 -370 11 -536 38 -588 41 -78 139 -112 222
-77 47 19 65 64 59 147 -3 34 -10 182 -16 327 -13 313 -22 291 113 291 48 0
144 5 214 11 104 10 128 9 139 -2 7 -8 30 -74 51 -147 45 -161 71 -203 152
-239 51 -24 59 -25 101 -14 63 17 110 48 117 78 8 32 -80 471 -152 758 -56
225 -212 777 -244 861 -86 232 -174 314 -345 320 -44 1 -91 0 -105 -2z m127
-604 c36 -96 89 -260 119 -365 30 -104 66 -224 80 -266 13 -42 24 -88 24 -102
0 -24 -4 -26 -67 -32 -38 -4 -117 -13 -178 -21 -158 -20 -145 -24 -145 49 1
86 26 482 46 720 16 186 18 198 37 195 16 -2 33 -39 84 -178z"/>
<path d="M29525 16982 c-49 -24 -79 -55 -101 -107 -14 -35 -16 -71 -10 -315
18 -727 53 -1168 132 -1665 39 -245 61 -331 95 -369 70 -80 259 -69 274 17 3
17 -5 131 -19 252 -36 314 -55 584 -66 950 -5 176 -13 371 -16 434 -7 107 -6
113 12 109 15 -2 50 -85 165 -388 158 -418 212 -537 381 -850 171 -316 181
-331 234 -370 85 -61 150 -41 202 63 18 36 22 72 31 262 5 121 8 285 5 365 -2
80 -9 309 -14 510 -16 564 -36 861 -65 957 -24 81 -48 102 -125 113 -79 11
-128 0 -173 -40 -64 -56 -68 -117 -26 -450 16 -132 119 -1160 119 -1191 0 -58
-110 141 -228 413 -27 62 -86 208 -130 323 -44 116 -104 266 -133 334 -69 163
-239 505 -276 556 -61 83 -189 124 -268 87z"/>
<path d="M28839 16877 c-52 -35 -56 -66 -26 -219 83 -422 108 -628 114 -961 7
-367 -15 -644 -66 -833 -23 -85 -132 -171 -185 -146 -14 6 -50 41 -80 78 -92
111 -134 249 -173 564 -18 148 -23 596 -13 1145 4 226 -2 258 -53 314 -29 31
-114 71 -153 71 -83 0 -185 -65 -223 -143 -29 -59 -43 -208 -44 -457 -1 -366
23 -612 94 -958 96 -470 245 -760 438 -855 64 -31 71 -32 191 -32 164 0 191
12 296 136 100 120 108 134 144 279 50 199 71 360 77 605 9 351 -13 623 -83
1025 -45 254 -73 349 -115 384 -39 33 -93 35 -140 3z"/>
<path d="M26175 16563 c-75 -6 -230 -36 -283 -54 -125 -43 -149 -86 -162 -292
-21 -317 -5 -803 35 -1121 37 -287 126 -729 159 -795 11 -21 28 -33 54 -40 83
-24 455 -4 527 28 53 23 115 83 115 110 0 13 -12 29 -32 41 -29 17 -51 20
-164 20 -94 0 -134 4 -141 13 -10 12 -45 232 -63 392 -14 129 -60 764 -60 835
0 70 -7 67 150 73 117 5 169 21 196 62 16 25 16 27 -3 53 -11 15 -40 38 -64
52 -38 22 -59 25 -161 28 l-118 4 6 192 c4 113 11 197 18 205 8 11 34 13 119
8 125 -5 197 9 235 46 23 23 23 26 8 55 -35 68 -180 101 -371 85z"/>
<path d="M23863 16451 c-23 -11 -46 -28 -52 -38 -17 -33 -24 -356 -12 -578 23
-430 78 -844 168 -1264 36 -173 111 -420 138 -459 55 -77 198 -75 286 5 66 59
66 56 10 226 -56 175 -75 255 -130 567 -68 384 -116 754 -104 798 12 47 32 18
78 -114 98 -285 266 -648 334 -725 54 -62 102 -85 138 -67 55 27 71 68 143
388 34 149 110 551 110 580 0 31 27 24 33 -10 11 -55 56 -493 72 -705 9 -115
19 -354 22 -530 2 -176 9 -334 14 -351 11 -36 55 -81 84 -85 46 -7 94 12 128
50 59 65 84 218 93 576 5 179 1 268 -25 605 -46 582 -73 812 -107 921 -24 75
-99 133 -189 145 -36 5 -55 2 -100 -21 -46 -22 -60 -35 -81 -76 -41 -82 -90
-271 -128 -499 -64 -380 -100 -544 -117 -548 -27 -5 -167 329 -279 668 -38
113 -77 226 -88 252 -55 125 -160 250 -245 288 -55 25 -139 25 -194 1z"/>
<path d="M22840 16324 c-96 -19 -154 -55 -184 -113 -43 -83 -113 -596 -147
-1076 -7 -93 -12 -334 -13 -535 0 -370 11 -536 38 -588 41 -78 139 -112 222
-77 47 19 65 64 59 147 -3 34 -10 182 -16 327 -13 313 -22 291 113 291 48 0
144 5 214 11 104 10 128 9 139 -2 7 -8 30 -74 51 -147 45 -161 71 -203 152
-239 51 -24 59 -25 101 -14 63 17 110 48 117 78 8 32 -80 471 -152 758 -56
225 -212 777 -244 861 -86 232 -174 314 -345 320 -44 1 -91 0 -105 -2z m127
-604 c36 -96 89 -260 119 -365 30 -104 66 -224 80 -266 13 -42 24 -88 24 -102
0 -24 -4 -26 -67 -32 -38 -4 -117 -13 -178 -21 -158 -20 -145 -24 -145 49 1
86 26 482 46 720 16 186 18 198 37 195 16 -2 33 -39 84 -178z"/>
<path d="M21313 16160 c-86 -18 -151 -71 -191 -158 -51 -112 -54 -451 -8
-1024 35 -428 54 -575 116 -873 42 -202 55 -239 92 -270 29 -24 38 -27 84 -22
70 7 98 23 218 127 169 146 346 346 449 505 105 165 198 393 237 585 34 167
23 365 -31 575 -58 221 -185 370 -403 470 -158 74 -420 113 -563 85z m271
-206 c105 -27 184 -71 255 -143 84 -84 132 -179 168 -332 24 -101 27 -134 27
-294 0 -163 -2 -190 -27 -288 -48 -192 -130 -363 -264 -548 -61 -85 -134 -159
-156 -159 -22 0 -31 165 -57 1145 -7 248 -17 460 -26 518 -8 54 -12 103 -8
108 7 12 16 12 88 -7z"/>
<path d="M31870 13664 c-115 -14 -433 -68 -475 -81 -184 -58 -339 -194 -429
-378 -50 -103 -149 -575 -206 -985 -170 -1229 -258 -2185 -310 -3360 -18 -388
-24 -1533 -11 -1975 13 -444 51 -949 82 -1084 49 -212 160 -339 356 -408 73
-26 89 -27 243 -28 150 0 170 2 223 23 135 55 203 142 227 290 4 24 1 121 -5
215 -7 95 -16 264 -19 377 -4 113 -20 527 -37 921 -35 799 -36 762 34 804 29
18 59 21 352 27 244 5 411 15 701 42 254 23 393 32 418 26 50 -11 81 -33 94
-67 7 -15 66 -217 133 -448 95 -331 130 -438 165 -505 83 -161 191 -267 349
-340 98 -46 160 -60 272 -60 108 0 182 19 309 79 151 72 213 137 233 247 10
53 3 94 -130 764 -256 1287 -450 2088 -788 3250 -113 387 -246 853 -322 1129
-78 286 -195 592 -319 842 -168 338 -372 523 -687 623 -140 44 -350 72 -453
60z m-59 -1524 c21 -28 157 -375 285 -729 217 -595 389 -1148 563 -1812 47
-180 84 -297 112 -360 50 -109 64 -210 36 -253 -20 -30 -59 -37 -412 -72 -260
-25 -592 -66 -694 -84 -78 -14 -176 -13 -189 3 -21 25 62 1468 138 2392 44
536 82 921 93 933 15 19 47 11 68 -18z"/>
<path d="M29290 13489 c-69 -5 -341 -22 -605 -39 -264 -17 -568 -39 -675 -50
-658 -68 -1615 -201 -1765 -245 -324 -94 -535 -311 -535 -549 0 -79 30 -202
63 -258 68 -116 223 -203 397 -223 48 -6 105 5 419 79 199 47 372 86 385 86
12 0 31 -7 43 -15 26 -18 29 -43 43 -340 10 -212 24 -321 180 -1420 184 -1295
214 -1525 260 -1985 82 -829 116 -1112 185 -1540 160 -987 270 -1367 495
-1710 119 -181 244 -275 399 -302 65 -11 83 -10 177 9 123 25 260 88 343 156
205 171 301 443 301 854 0 172 -17 325 -80 713 -48 298 -72 464 -85 605 -4 39
-20 151 -35 250 -114 713 -229 1638 -305 2450 -9 94 -61 602 -115 1130 -55
528 -105 1014 -111 1080 -12 137 -5 235 19 265 36 44 174 62 612 80 146 6 338
17 427 24 152 13 167 16 238 49 96 46 173 118 213 200 65 134 67 239 9 362
-118 248 -348 321 -897 284z"/>
<path d="M23780 12944 c-115 -14 -433 -68 -475 -81 -184 -58 -339 -194 -429
-378 -50 -103 -149 -575 -206 -985 -170 -1229 -258 -2185 -310 -3360 -18 -388
-24 -1533 -11 -1975 13 -444 51 -949 82 -1084 49 -212 160 -339 356 -408 73
-26 89 -27 243 -28 150 0 170 2 223 23 135 55 203 142 227 290 4 24 1 121 -5
215 -7 95 -16 264 -19 377 -4 113 -20 527 -37 921 -35 799 -36 762 34 804 29
18 59 21 352 27 244 5 411 15 701 42 254 23 393 32 418 26 50 -11 81 -33 94
-67 7 -15 66 -217 133 -448 95 -331 130 -438 165 -505 83 -161 191 -267 349
-340 98 -46 160 -60 272 -60 108 0 182 19 309 79 151 72 213 137 233 247 10
53 3 94 -130 764 -256 1287 -450 2088 -788 3250 -113 387 -246 853 -322 1129
-78 286 -195 592 -319 842 -168 338 -372 523 -687 623 -140 44 -350 72 -453
60z m-59 -1524 c21 -28 157 -375 285 -729 217 -595 389 -1148 563 -1812 47
-180 84 -297 112 -360 50 -109 64 -210 36 -253 -20 -30 -59 -37 -412 -72 -260
-25 -592 -66 -694 -84 -78 -14 -176 -13 -189 3 -21 25 62 1468 138 2392 44
536 82 921 93 933 15 19 47 11 68 -18z"/>
<path d="M19130 12439 c-521 -16 -1015 -106 -1264 -231 -254 -127 -397 -294
-442 -518 -16 -80 -16 -114 0 -565 9 -264 21 -624 26 -800 46 -1405 198 -2976
406 -4180 19 -110 63 -371 98 -580 105 -620 186 -1004 256 -1215 99 -297 266
-589 431 -751 171 -169 394 -163 588 17 123 114 201 242 240 396 27 103 45
346 37 483 -4 61 -63 486 -132 945 -68 459 -124 855 -124 881 0 43 3 49 35 69
24 15 69 26 142 35 283 38 554 119 798 240 412 204 738 487 1109 963 291 374
438 696 518 1142 20 108 23 155 21 345 -4 536 -47 928 -148 1341 -143 584
-392 1071 -724 1417 -304 316 -663 499 -1101 562 -116 16 -330 17 -770 4z
m-71 -799 c343 -31 611 -144 837 -353 143 -133 218 -248 337 -519 177 -400
267 -814 267 -1229 0 -326 -58 -623 -176 -903 -169 -401 -517 -722 -996 -920
-138 -57 -197 -46 -242 46 -34 71 -37 97 -106 881 -43 483 -60 725 -60 840 0
240 -44 1204 -76 1652 -23 330 -27 430 -20 458 5 21 17 30 54 41 58 18 45 18
181 6z"/>
</g>
</svg>
