<?xml version="1.0" standalone="no"?>
<!DOCTYPE svg PUBLIC "-//W3C//DTD SVG 20010904//EN"
 "http://www.w3.org/TR/2001/REC-SVG-20010904/DTD/svg10.dtd">
<svg version="1.0" xmlns="http://www.w3.org/2000/svg"
 width="5728.000000pt" height="2480.000000pt" viewBox="0 0 5728.000000 2480.000000"
 preserveAspectRatio="xMidYMid meet">

<g transform="translate(0.000000,2480.000000) scale(0.100000,-0.100000)"
fill="#000000" stroke="none">
<path d="M14120 22740 c-806 -65 -1494 -253 -2190 -600 -1438 -716 -2508
-2010 -2954 -3574 -146 -510 -216 -1017 -216 -1567 0 -1137 341 -2257 975
-3199 220 -327 406 -553 704 -851 308 -307 440 -416 942 -780 555 -401 745
-539 1289 -933 300 -217 674 -488 833 -602 l287 -208 -5 -75 c-13 -174 -396
-8813 -391 -8818 2 -3 5864 789 13026 1758 12610 1708 13021 1764 13017 1784
-6 29 -3923 10744 -3930 10751 -6 6 -2277 -342 -2285 -351 -5 -4 86 -596 92
-603 2 -2 403 58 891 134 517 80 890 133 895 128 9 -10 3502 -9565 3498 -9569
-2 -1 -4300 -583 -9553 -1294 l-9550 -1292 -75 -38 c-55 -29 -123 -50 -255
-81 -211 -50 -270 -53 -412 -20 l-102 23 -2302 -312 c-1266 -171 -2304 -310
-2306 -307 -6 6 337 7665 345 7709 l7 38 115 -84 c300 -218 870 -632 1100
-797 140 -101 377 -272 525 -380 437 -318 788 -570 791 -567 1 1 -6 97 -16
212 -61 694 -108 1476 -125 2065 -3 113 -13 408 -22 655 -8 248 -13 482 -10
520 7 97 93 456 128 532 35 80 184 287 253 353 82 80 320 245 431 299 128 62
211 89 470 150 375 89 670 134 956 147 l136 6 176 436 c97 241 246 610 333
822 271 668 301 747 375 993 165 546 241 1070 241 1647 -1 759 -136 1457 -418
2159 -426 1056 -1154 1958 -2104 2602 -444 301 -917 533 -1440 705 -379 125
-797 214 -1215 259 -173 19 -787 28 -955 15z m1120 -2436 c260 -51 501 -255
641 -544 78 -160 89 -188 113 -285 38 -155 49 -256 48 -435 -1 -158 -11 -240
-45 -385 -17 -75 -63 -208 -88 -257 -10 -21 -29 -57 -40 -80 -12 -24 -29 -52
-38 -63 -10 -11 -29 -39 -44 -62 -37 -58 -163 -182 -229 -227 -213 -141 -436
-162 -688 -64 -109 42 -245 149 -328 257 -15 19 -36 45 -48 58 -12 12 -35 49
-53 80 -18 32 -45 79 -61 105 -28 45 -82 199 -115 328 -40 155 -53 469 -25
625 17 95 58 253 76 287 8 15 14 32 14 37 0 44 122 251 207 351 162 189 340
277 588 289 17 0 68 -6 115 -15z m-2615 -744 c111 -11 158 -24 290 -82 267
-118 521 -376 659 -670 111 -234 168 -479 161 -686 -7 -208 -39 -331 -127
-492 -81 -148 -215 -267 -358 -316 -139 -49 -225 -55 -375 -29 -190 33 -349
111 -510 248 -88 76 -207 205 -232 252 -9 17 -31 48 -48 70 -18 22 -41 57 -51
77 -11 20 -40 79 -66 130 -93 186 -140 404 -140 653 0 131 4 163 27 249 14 55
40 126 56 157 16 32 29 63 29 69 0 5 23 43 52 82 111 156 240 239 443 283 75
17 69 16 190 5z m4790 -592 c156 -29 302 -131 428 -299 34 -44 57 -79 57 -84
0 -3 13 -33 30 -66 93 -187 124 -470 80 -725 -24 -136 -35 -177 -80 -289 -91
-229 -246 -428 -422 -542 -156 -100 -238 -127 -394 -126 -136 1 -207 16 -304
65 -199 100 -350 299 -426 560 -35 119 -36 129 -37 293 -1 195 3 241 28 345
38 163 120 350 215 490 47 70 167 189 247 246 181 130 362 172 578 132z
m-2630 -1594 c251 -20 495 -139 775 -378 58 -49 112 -95 120 -102 8 -7 40 -34
70 -61 260 -229 418 -356 540 -433 30 -19 74 -49 98 -67 24 -18 113 -67 198
-108 331 -162 486 -266 683 -458 217 -213 359 -449 421 -703 41 -166 41 -376
-1 -529 -13 -47 -57 -163 -69 -185 -5 -8 -18 -33 -28 -56 -43 -90 -165 -236
-279 -333 -101 -84 -256 -169 -368 -201 -69 -20 -274 -54 -281 -47 -3 2 -26 0
-52 -5 -26 -4 -200 -10 -387 -13 -337 -4 -476 -13 -630 -40 -44 -8 -98 -16
-119 -19 -60 -8 -229 -57 -246 -72 -8 -7 -48 -24 -89 -38 -41 -14 -81 -32 -90
-40 -9 -8 -41 -24 -72 -35 -31 -12 -76 -34 -100 -50 -24 -16 -77 -48 -118 -72
-41 -24 -113 -68 -160 -96 -98 -60 -167 -100 -220 -127 -20 -10 -43 -24 -51
-30 -8 -7 -40 -23 -70 -35 -30 -13 -62 -29 -70 -35 -30 -25 -244 -97 -328
-111 -90 -15 -216 -21 -311 -16 -77 5 -278 71 -360 119 -122 70 -275 199 -334
281 -82 113 -111 159 -129 200 -60 137 -89 219 -98 275 -5 33 -14 88 -19 121
-18 104 -13 342 10 473 19 113 44 206 59 227 4 6 10 27 14 48 19 104 143 357
260 533 25 37 46 73 46 79 0 6 12 27 26 46 23 30 164 310 164 325 0 3 6 20 14
37 7 18 20 50 29 72 8 22 26 69 40 105 14 36 31 81 37 100 26 75 129 369 154
438 15 40 43 109 62 155 20 45 44 103 54 128 22 59 123 238 161 285 16 20 29
40 29 45 0 16 188 197 241 232 85 55 215 113 304 135 107 27 314 52 370 45 11
-1 56 -5 100 -9z m-3145 -60 c79 -17 159 -42 175 -56 5 -4 16 -8 25 -8 25 0
190 -98 250 -149 30 -25 77 -64 104 -86 115 -92 297 -365 352 -526 55 -162 67
-227 67 -369 0 -146 -21 -262 -65 -357 -31 -69 -95 -161 -143 -208 -41 -41
-158 -125 -172 -125 -5 0 -21 -7 -36 -15 -135 -70 -413 -59 -621 26 -224 90
-479 306 -597 504 -17 28 -44 72 -60 99 -41 66 -83 184 -120 335 -28 116 -30
134 -25 250 5 128 15 173 59 294 36 95 78 156 162 235 68 64 176 128 260 154
91 29 250 29 385 2z"/>
<path d="M31464 17095 c-153 -29 -185 -68 -223 -271 -92 -489 -143 -1328 -110
-1834 11 -181 27 -234 81 -274 35 -25 135 -34 178 -16 61 25 62 33 46 397 -8
187 -10 335 -5 344 6 13 33 18 131 23 68 4 166 11 218 17 118 12 114 15 160
-148 18 -65 44 -137 57 -161 60 -107 201 -133 293 -55 41 34 40 54 -20 345
-62 305 -120 541 -216 878 -141 499 -176 591 -259 673 -78 78 -197 108 -331
82z m89 -501 c47 -115 142 -401 186 -559 23 -83 51 -178 63 -213 19 -54 20
-64 7 -76 -12 -12 -258 -47 -349 -50 l-25 -1 3 120 c4 184 45 773 58 833 8 38
26 20 57 -54z"/>
<path d="M29520 16989 c-59 -24 -108 -99 -113 -171 -3 -57 11 -559 24 -823 18
-387 58 -771 120 -1150 46 -286 70 -342 150 -365 73 -21 188 -3 211 33 13 20
9 85 -17 315 -34 299 -53 592 -65 975 -14 453 -13 495 4 477 8 -8 76 -179 151
-380 145 -388 237 -587 440 -960 131 -242 184 -300 268 -300 42 0 77 26 110
83 40 67 51 332 37 885 -22 895 -44 1193 -95 1292 -21 40 -45 51 -128 57 -62
4 -78 1 -116 -19 -77 -40 -86 -61 -85 -201 0 -67 10 -201 23 -298 28 -227 121
-1173 115 -1178 -9 -9 -24 17 -93 156 -97 197 -160 342 -256 594 -117 306
-164 415 -286 659 -118 237 -155 286 -236 314 -52 18 -125 20 -163 5z"/>
<path d="M28853 16891 c-75 -35 -77 -56 -28 -315 97 -512 124 -889 95 -1290
-11 -145 -41 -349 -62 -418 -13 -45 -68 -112 -109 -133 -47 -25 -73 -19 -115
28 -71 76 -94 113 -125 197 -39 107 -55 186 -81 395 -23 185 -28 472 -18 1080
5 319 3 334 -43 383 -36 39 -117 75 -168 76 -60 0 -149 -43 -189 -92 -46 -56
-59 -115 -72 -341 -10 -175 -9 -247 5 -481 18 -288 33 -402 92 -687 54 -263
113 -429 215 -603 115 -197 267 -276 475 -250 115 15 152 36 241 143 92 110
105 138 143 298 60 249 66 320 66 714 -1 405 -9 502 -76 885 -58 329 -79 388
-145 416 -43 18 -50 17 -101 -5z"/>
<path d="M26105 16559 c-115 -16 -237 -48 -283 -75 -88 -52 -101 -131 -101
-624 -1 -392 24 -700 85 -1060 30 -178 100 -484 116 -510 7 -11 26 -24 42 -30
36 -12 265 -13 404 0 113 10 169 30 220 78 27 25 33 38 30 64 -5 49 -32 58
-183 58 -71 0 -136 4 -143 8 -12 8 -39 156 -62 332 -11 87 -70 850 -70 907 0
54 19 63 133 63 124 1 194 21 217 63 13 24 13 30 0 55 -9 15 -39 39 -69 55
-50 25 -64 27 -169 27 l-115 0 6 83 c4 45 9 135 13 200 6 97 9 117 23 118 9 1
60 1 113 -1 154 -4 248 29 248 86 0 28 -58 79 -107 94 -51 16 -262 21 -348 9z"/>
<path d="M23897 16469 c-56 -13 -85 -37 -97 -78 -22 -81 -8 -614 25 -946 48
-471 158 -1037 244 -1262 42 -108 68 -128 166 -128 52 1 81 6 111 22 52 28
104 87 104 118 0 13 -14 62 -30 107 -76 207 -165 650 -225 1122 -27 214 -32
310 -14 304 6 -2 35 -69 63 -148 114 -315 265 -642 332 -719 38 -44 85 -71
124 -71 33 0 77 52 94 111 33 111 96 401 136 619 52 285 49 272 59 265 11 -6
24 -105 50 -360 39 -382 62 -767 60 -1035 -1 -221 3 -241 51 -285 30 -27 110
-26 148 2 48 36 69 79 86 176 54 316 48 657 -30 1507 -19 208 -57 448 -78 489
-63 120 -253 148 -342 49 -44 -47 -108 -269 -144 -493 -19 -118 -77 -430 -102
-547 -5 -27 -14 -48 -19 -48 -23 0 -183 393 -288 707 -75 226 -92 266 -151
353 -92 135 -215 198 -333 169z"/>
<path d="M22834 16325 c-153 -29 -185 -68 -223 -271 -92 -489 -143 -1328 -110
-1834 11 -181 27 -234 81 -274 35 -25 135 -34 178 -16 61 25 62 33 46 397 -8
187 -10 335 -5 344 6 13 33 18 131 23 68 4 166 11 218 17 118 12 114 15 160
-148 18 -65 44 -137 57 -161 60 -107 201 -133 293 -55 41 34 40 54 -20 345
-62 305 -120 541 -216 878 -141 499 -176 591 -259 673 -78 78 -197 108 -331
82z m89 -501 c47 -115 142 -401 186 -559 23 -83 51 -178 63 -213 19 -54 20
-64 7 -76 -12 -12 -258 -47 -349 -50 l-25 -1 3 120 c4 184 45 773 58 833 8 38
26 20 57 -54z"/>
<path d="M21295 16161 c-84 -21 -161 -96 -191 -188 -17 -52 -19 -90 -18 -383
1 -508 53 -1068 139 -1475 46 -224 53 -244 85 -277 24 -24 36 -28 82 -28 70 1
116 23 213 105 174 147 365 361 468 520 106 166 202 400 243 595 45 213 -3
573 -99 755 -78 146 -247 274 -442 334 -137 43 -387 64 -480 42z m316 -220
c206 -70 326 -207 384 -436 96 -378 28 -727 -213 -1090 -36 -55 -95 -129 -130
-165 -58 -58 -65 -63 -72 -45 -10 28 -27 364 -40 810 -14 468 -29 836 -36 898
-6 47 -6 47 23 47 17 0 54 -8 84 -19z"/>
<path d="M31825 13663 c-16 -2 -121 -20 -233 -38 -187 -31 -210 -37 -295 -79
-200 -98 -328 -257 -381 -472 -36 -144 -92 -427 -126 -637 -38 -235 -130 -935
-174 -1337 -131 -1178 -186 -2189 -186 -3410 0 -745 12 -1151 46 -1535 36
-414 67 -519 188 -641 100 -100 222 -146 416 -159 289 -19 467 98 495 325 3
30 1 107 -4 170 -6 63 -16 250 -22 415 -6 165 -23 599 -39 964 -29 649 -29
665 -11 706 30 68 68 80 231 77 177 -4 439 11 849 48 184 16 359 30 390 30 60
0 111 -23 130 -58 5 -10 64 -207 131 -437 134 -463 148 -503 212 -602 114
-176 292 -293 491 -323 136 -20 265 5 423 81 102 50 157 97 191 163 46 88 42
121 -110 876 -285 1416 -463 2139 -859 3485 -71 242 -152 526 -179 630 -98
370 -165 576 -270 827 -157 376 -285 571 -469 710 -118 90 -307 169 -483 203
-84 16 -298 27 -352 18z m-16 -1534 c17 -22 35 -57 42 -77 6 -20 43 -118 81
-217 288 -741 575 -1637 748 -2335 35 -144 39 -154 92 -272 44 -98 58 -180 39
-227 -17 -40 -41 -45 -402 -81 -292 -30 -614 -70 -728 -90 -123 -22 -187 -7
-177 43 3 12 8 87 11 167 42 1030 195 3069 233 3113 22 24 28 22 61 -24z"/>
<path d="M28850 13465 c-604 -38 -673 -44 -1100 -91 -353 -39 -662 -78 -1010
-129 -129 -20 -269 -40 -310 -46 -327 -46 -590 -204 -685 -410 -13 -30 -29
-87 -35 -127 -9 -62 -7 -88 11 -175 36 -178 115 -265 299 -331 143 -52 178
-49 566 43 325 77 404 90 431 73 21 -13 32 -104 43 -360 10 -232 18 -297 171
-1360 208 -1458 233 -1653 294 -2302 74 -786 211 -1697 326 -2160 111 -448
274 -800 454 -976 172 -169 398 -189 663 -58 216 106 347 294 408 586 20 96
33 413 22 528 -16 166 -42 348 -83 595 -24 143 -53 343 -65 445 -11 102 -34
273 -51 380 -118 758 -234 1690 -299 2405 -6 66 -60 597 -120 1180 -70 673
-110 1101 -110 1172 0 193 -11 190 700 223 320 15 487 29 545 47 149 45 257
156 300 307 57 198 -47 418 -240 506 -171 78 -361 84 -1125 35z"/>
<path d="M23735 12943 c-16 -2 -121 -20 -233 -38 -187 -31 -210 -37 -295 -79
-200 -98 -328 -257 -381 -472 -36 -144 -92 -427 -126 -637 -38 -235 -130 -935
-174 -1337 -131 -1178 -186 -2189 -186 -3410 0 -745 12 -1151 46 -1535 36
-414 67 -519 188 -641 100 -100 222 -146 416 -159 289 -19 467 98 495 325 3
30 1 107 -4 170 -6 63 -16 250 -22 415 -6 165 -23 599 -39 964 -29 649 -29
665 -11 706 30 68 68 80 231 77 177 -4 439 11 849 48 184 16 359 30 390 30 60
0 111 -23 130 -58 5 -10 64 -207 131 -437 134 -463 148 -503 212 -602 114
-176 292 -293 491 -323 136 -20 265 5 423 81 102 50 157 97 191 163 46 88 42
121 -110 876 -285 1416 -463 2139 -859 3485 -71 242 -152 526 -179 630 -98
370 -165 576 -270 827 -157 376 -285 571 -469 710 -118 90 -307 169 -483 203
-84 16 -298 27 -352 18z m-16 -1534 c17 -22 35 -57 42 -77 6 -20 43 -118 81
-217 288 -741 575 -1637 748 -2335 35 -144 39 -154 92 -272 44 -98 58 -180 39
-227 -17 -40 -41 -45 -402 -81 -292 -30 -614 -70 -728 -90 -123 -22 -187 -7
-177 43 3 12 8 87 11 167 42 1030 195 3069 233 3113 22 24 28 22 61 -24z"/>
<path d="M19254 12444 c-465 -14 -622 -29 -924 -89 -215 -43 -337 -80 -459
-140 -297 -145 -440 -330 -458 -595 -3 -47 2 -303 11 -570 9 -267 21 -622 26
-790 47 -1369 197 -2923 395 -4074 25 -143 75 -436 110 -649 103 -613 188
-1009 261 -1219 77 -221 180 -421 305 -587 122 -164 205 -227 332 -252 201
-40 435 116 567 380 42 85 67 185 81 336 23 244 13 341 -125 1262 -69 463
-126 856 -126 873 0 23 7 35 33 50 42 26 77 35 222 55 528 72 1041 340 1465
765 132 131 218 231 364 418 286 367 428 671 514 1102 25 128 26 149 25 410
-1 321 -15 564 -43 778 -106 793 -345 1403 -728 1863 -312 372 -716 600 -1180
663 -164 23 -215 23 -668 10z m-87 -820 c341 -50 618 -203 840 -463 103 -121
277 -488 357 -753 187 -621 178 -1212 -26 -1727 -128 -321 -366 -596 -687
-795 -150 -93 -396 -206 -448 -206 -62 0 -109 51 -137 150 -10 33 -41 342 -80
790 -55 627 -65 779 -70 1035 -7 417 -50 1256 -88 1750 -13 176 -9 201 35 220
43 19 175 19 304 -1z"/>
</g>
</svg>
