<?xml version="1.0" standalone="no"?>
<!DOCTYPE svg PUBLIC "-//W3C//DTD SVG 20010904//EN"
 "http://www.w3.org/TR/2001/REC-SVG-20010904/DTD/svg10.dtd">
<svg version="1.0" xmlns="http://www.w3.org/2000/svg"
 width="5728.000000pt" height="2480.000000pt" viewBox="0 0 5728.000000 2480.000000"
 preserveAspectRatio="xMidYMid meet">

<g transform="translate(0.000000,2480.000000) scale(0.100000,-0.100000)"
fill="#000000" stroke="none">
<path d="M14438 22754 c-2 -2 -64 -4 -138 -5 -406 -7 -936 -91 -1380 -219
-775 -224 -1491 -603 -2100 -1113 -1123 -939 -1852 -2284 -2024 -3737 -38
-319 -49 -765 -27 -1075 82 -1114 477 -2172 1144 -3061 304 -404 689 -792
1098 -1106 79 -60 403 -296 1014 -738 615 -445 1407 -1019 1573 -1139 l182
-132 0 -55 c0 -30 -88 -2011 -195 -4402 -108 -2391 -194 -4370 -193 -4397 l3
-50 13025 1763 c7164 970 13026 1765 13027 1766 2 2 -3934 10777 -3939 10780
-4 3 -2289 -351 -2292 -356 -5 -6 91 -598 98 -605 3 -4 405 55 893 130 487 76
889 134 893 130 18 -21 3492 -9555 3484 -9562 -5 -4 -4306 -590 -9559 -1301
-8851 -1198 -9552 -1294 -9587 -1316 -58 -37 -99 -50 -288 -95 -197 -46 -269
-48 -425 -12 l-80 19 -2300 -312 c-1265 -172 -2301 -311 -2302 -310 -1 0 77
1740 173 3866 95 2126 174 3868 174 3872 0 4 123 -82 273 -190 739 -536 1258
-911 1736 -1258 289 -210 527 -380 529 -379 2 2 -8 140 -22 306 -64 761 -105
1461 -121 2059 -3 124 -13 414 -21 645 -8 231 -12 443 -9 470 4 28 27 138 52
245 55 238 87 311 210 475 101 136 147 179 325 304 213 149 334 201 627 272
405 97 707 147 936 155 77 3 159 7 181 10 l42 5 36 87 c19 48 90 222 156 387
200 496 387 957 480 1185 141 344 219 581 295 895 148 604 196 1247 139 1855
-89 968 -402 1863 -929 2660 -351 529 -738 952 -1236 1347 -568 451 -1266 810
-1969 1012 -328 94 -733 172 -1015 197 -44 3 -89 8 -100 10 -37 7 -542 24
-547 18z m807 -2455 c103 -17 265 -96 354 -173 78 -68 241 -264 241 -291 0 -3
11 -22 23 -43 13 -20 34 -63 45 -95 12 -32 28 -68 36 -80 8 -12 28 -74 45
-137 125 -483 23 -1028 -251 -1343 -101 -116 -175 -172 -302 -232 -90 -42
-130 -52 -236 -60 -125 -9 -273 27 -410 99 -45 25 -157 114 -195 157 -57 64
-132 164 -154 204 -12 22 -35 60 -51 85 -33 52 -90 217 -125 364 -42 173 -49
479 -16 641 45 221 132 424 243 571 59 79 214 234 234 234 6 0 27 11 47 24 52
36 189 77 282 85 86 8 84 8 190 -10z m-2604 -744 c36 -2 85 -11 110 -19 24 -9
49 -16 56 -16 11 0 113 -44 198 -86 37 -18 156 -105 222 -161 64 -56 184 -194
227 -263 19 -30 42 -66 52 -79 52 -73 147 -305 182 -446 21 -82 47 -225 44
-237 -1 -3 -2 -62 -3 -130 -1 -179 -28 -300 -95 -431 -77 -152 -148 -236 -257
-307 -72 -47 -216 -96 -309 -106 -81 -8 -255 18 -346 52 -102 39 -233 111
-304 168 -92 74 -253 236 -273 276 -10 19 -33 53 -50 75 -18 22 -57 87 -86
145 -28 58 -57 112 -64 120 -11 15 -15 25 -61 180 -37 127 -55 283 -50 451 4
164 25 266 75 368 17 36 31 68 31 72 0 5 23 42 51 84 106 156 242 243 452 289
34 8 78 12 97 10 19 -3 65 -6 101 -9z m4749 -586 c118 -18 246 -84 343 -178
64 -61 153 -180 174 -234 9 -23 24 -53 33 -67 19 -28 72 -208 65 -220 -2 -4 2
-38 9 -76 20 -97 18 -248 -5 -389 -22 -132 -27 -153 -71 -270 -37 -100 -44
-114 -92 -200 -74 -131 -240 -315 -321 -357 -22 -12 -53 -31 -70 -43 -112 -84
-316 -118 -499 -84 -105 20 -225 90 -325 188 -48 47 -94 98 -102 113 -8 15
-35 64 -61 110 -103 186 -143 420 -114 673 17 148 32 218 71 325 29 83 113
247 166 325 45 67 196 216 267 263 100 66 236 120 332 130 47 5 94 7 105 6 11
-2 54 -8 95 -15z m-2449 -1623 c53 -14 121 -36 150 -50 29 -14 58 -26 63 -26
22 -1 252 -149 317 -204 21 -17 56 -47 79 -66 57 -47 173 -147 283 -245 49
-44 119 -104 156 -133 36 -29 77 -62 90 -73 52 -43 169 -128 221 -160 30 -18
74 -48 98 -66 23 -18 113 -67 200 -109 168 -82 325 -169 382 -212 19 -15 51
-38 70 -51 62 -42 234 -197 296 -267 93 -105 174 -212 174 -232 0 -5 9 -17 20
-27 11 -10 20 -24 20 -30 0 -7 15 -43 34 -81 77 -154 114 -289 122 -448 8
-148 -23 -348 -68 -438 -10 -21 -18 -44 -18 -51 0 -8 -9 -26 -20 -40 -11 -14
-20 -31 -20 -37 0 -12 -49 -82 -132 -187 -85 -109 -204 -206 -334 -273 -172
-89 -290 -116 -589 -135 -27 -2 -138 -4 -245 -5 -167 -1 -342 -8 -591 -25 -32
-2 -85 -11 -118 -20 -34 -9 -66 -13 -71 -10 -14 9 -239 -53 -280 -77 -19 -11
-66 -31 -105 -45 -38 -14 -77 -31 -85 -38 -8 -7 -43 -25 -78 -38 -34 -14 -93
-46 -130 -70 -37 -25 -82 -52 -101 -62 -19 -10 -57 -33 -84 -52 -28 -20 -64
-42 -81 -50 -17 -8 -56 -29 -86 -48 -30 -19 -71 -42 -90 -52 -19 -9 -47 -25
-61 -34 -14 -10 -45 -25 -70 -35 -24 -9 -51 -23 -59 -30 -14 -11 -160 -68
-240 -93 -51 -16 -192 -41 -200 -36 -4 2 -31 0 -61 -4 -93 -15 -223 8 -408 74
-131 47 -328 197 -436 332 -84 105 -168 271 -210 413 -53 184 -58 481 -11 700
13 63 30 129 36 145 7 17 20 57 30 90 35 118 80 218 156 353 42 75 84 145 93
155 9 10 30 43 46 72 17 30 49 87 71 127 23 40 63 120 89 178 51 116 53 119
85 205 12 33 31 82 42 109 11 27 26 68 33 90 8 23 32 93 55 156 23 63 45 129
50 145 5 17 23 66 40 110 17 44 40 103 50 130 10 28 32 79 49 115 17 36 31 70
31 77 0 17 129 242 164 286 134 168 217 239 367 316 172 89 341 122 579 116
114 -3 166 -9 241 -29z m-3346 -26 c17 -5 50 -12 75 -16 87 -13 275 -101 376
-175 212 -155 316 -277 437 -509 118 -227 158 -479 109 -700 -44 -199 -127
-325 -292 -444 -138 -100 -330 -130 -541 -87 -215 45 -405 151 -584 327 -96
95 -169 184 -204 249 -12 22 -35 61 -51 86 -38 58 -94 220 -126 361 -37 162
-23 332 39 501 38 102 73 155 151 232 111 109 268 179 411 184 33 1 61 4 63 6
6 5 101 -5 137 -15z"/>
<path d="M31495 17104 c-11 -3 -44 -10 -74 -15 -73 -15 -136 -71 -156 -143
-49 -174 -111 -696 -135 -1131 -13 -241 -13 -700 1 -866 17 -212 52 -259 194
-259 61 0 69 3 97 30 l30 30 -7 183 c-4 100 -10 251 -14 335 -3 84 -3 161 1
171 5 15 24 19 130 24 67 4 169 10 225 13 120 8 103 26 159 -168 40 -139 68
-184 135 -218 51 -27 122 -25 179 3 79 39 79 39 16 350 -71 347 -131 589 -251
1007 -134 467 -183 565 -315 624 -59 27 -168 42 -215 30z m67 -539 c56 -144
132 -375 179 -544 22 -80 50 -172 61 -205 20 -54 20 -60 5 -71 -9 -7 -71 -18
-137 -24 -66 -7 -142 -16 -169 -20 -28 -4 -55 -5 -60 -1 -12 7 -3 216 29 635
23 298 28 337 42 333 6 -2 28 -49 50 -103z"/>
<path d="M29495 16976 c-42 -25 -70 -65 -86 -119 -14 -50 20 -977 47 -1272 44
-479 113 -932 159 -1031 19 -44 29 -54 68 -69 58 -22 171 -18 210 8 24 16 27
24 27 77 0 32 -11 157 -25 277 -32 285 -53 605 -65 993 -13 410 -13 457 1 443
6 -6 77 -186 158 -399 152 -399 208 -527 326 -744 37 -69 101 -188 142 -265
42 -77 83 -149 92 -159 33 -39 104 -76 145 -76 48 0 74 19 109 76 23 38 27 57
37 220 25 372 -22 1728 -65 1889 -21 77 -38 103 -83 122 -52 22 -172 14 -209
-13 -59 -44 -73 -78 -73 -178 0 -50 10 -167 21 -261 45 -361 125 -1225 113
-1225 -23 0 -229 455 -344 760 -34 91 -84 219 -112 285 -78 186 -262 556 -299
599 -70 83 -210 112 -294 62z"/>
<path d="M28850 16893 c-21 -11 -42 -33 -53 -55 -18 -36 -18 -39 13 -192 79
-404 108 -643 116 -946 10 -369 -33 -775 -93 -878 -25 -44 -102 -102 -134
-102 -9 0 -45 30 -79 67 -102 109 -145 228 -181 503 -39 302 -43 432 -29 905
15 540 12 573 -57 636 -99 92 -227 86 -329 -16 -60 -60 -69 -90 -84 -270 -20
-252 -1 -723 39 -970 34 -202 89 -458 121 -556 40 -124 145 -339 203 -414 91
-120 193 -169 352 -169 108 1 173 14 218 46 38 27 177 195 193 234 21 49 62
221 86 360 21 119 23 159 23 509 0 413 -4 465 -61 820 -36 224 -66 363 -89
419 -31 74 -108 104 -175 69z"/>
<path d="M26120 16564 c-169 -26 -278 -58 -324 -96 -55 -45 -65 -93 -76 -384
-21 -549 32 -1110 154 -1628 38 -162 47 -183 84 -197 32 -12 315 -12 433 0
100 11 141 26 192 71 29 25 37 39 37 66 0 58 -31 69 -185 69 -71 0 -135 3
-141 7 -28 18 -68 344 -104 831 -30 406 -30 454 -2 458 4 0 51 3 105 5 157 6
227 35 227 94 0 39 -23 65 -82 91 -46 20 -68 23 -160 22 -60 -1 -110 2 -112 6
-2 3 1 92 7 196 l12 190 145 5 c160 6 215 22 226 65 22 86 -89 136 -296 134
-63 -1 -126 -3 -140 -5z"/>
<path d="M23891 16470 c-49 -12 -84 -42 -94 -81 -14 -51 -1 -668 18 -864 59
-615 208 -1338 296 -1431 31 -33 83 -47 149 -41 66 6 104 23 154 70 47 44 46
66 -4 215 -45 136 -80 277 -110 442 -64 364 -81 470 -100 613 -28 217 -35 323
-23 330 6 4 33 -56 63 -141 114 -315 264 -639 332 -717 95 -108 185 -97 223
28 38 127 126 549 180 862 5 27 9 35 15 25 12 -23 17 -66 44 -330 41 -400 58
-678 60 -980 2 -252 5 -289 21 -323 23 -49 65 -71 122 -63 110 15 141 78 168
341 25 242 19 538 -20 1023 -47 583 -74 768 -121 849 -30 52 -111 95 -182 96
-61 1 -137 -35 -163 -77 -44 -70 -94 -257 -133 -496 -46 -277 -108 -581 -118
-578 -24 8 -190 421 -284 707 -82 247 -127 334 -219 427 -57 59 -81 75 -125
88 -58 17 -95 19 -149 6z"/>
<path d="M22865 16334 c-11 -3 -44 -10 -74 -15 -73 -15 -136 -71 -156 -143
-49 -174 -111 -696 -135 -1131 -13 -241 -13 -700 1 -866 17 -212 52 -259 194
-259 61 0 69 3 97 30 l30 30 -7 183 c-4 100 -10 251 -14 335 -3 84 -3 161 1
171 5 15 24 19 130 24 67 4 169 10 225 13 120 8 103 26 159 -168 40 -139 68
-184 135 -218 51 -27 122 -25 179 3 79 39 79 39 16 350 -71 347 -131 589 -251
1007 -134 467 -183 565 -315 624 -59 27 -168 42 -215 30z m67 -539 c56 -144
132 -375 179 -544 22 -80 50 -172 61 -205 20 -54 20 -60 5 -71 -9 -7 -71 -18
-137 -24 -66 -7 -142 -16 -169 -20 -28 -4 -55 -5 -60 -1 -12 7 -3 216 29 635
23 298 28 337 42 333 6 -2 28 -49 50 -103z"/>
<path d="M21267 16156 c-78 -29 -130 -86 -162 -177 -24 -67 -36 -347 -25 -561
33 -613 71 -956 146 -1318 44 -215 49 -233 80 -264 23 -22 35 -26 86 -26 79 0
109 14 214 102 174 146 366 362 479 536 132 205 234 499 251 724 11 145 -38
437 -96 572 -77 182 -271 329 -516 392 -124 32 -393 44 -457 20z m323 -211
c207 -55 344 -207 405 -448 97 -387 17 -754 -244 -1121 -31 -44 -81 -104 -111
-134 l-55 -55 -7 39 c-9 58 -26 431 -38 859 -13 429 -28 782 -36 838 -7 44 -1
45 86 22z"/>
<path d="M31601 13630 c-197 -35 -234 -44 -305 -79 -149 -73 -257 -181 -330
-328 -55 -111 -148 -552 -211 -1004 -235 -1691 -327 -2968 -327 -4524 0 -761
12 -1165 48 -1562 34 -393 62 -486 178 -610 98 -106 230 -158 426 -170 241
-14 395 56 467 212 33 72 35 125 15 490 -14 270 -72 1669 -74 1786 -2 86 11
117 63 148 26 16 65 19 317 24 205 4 398 16 677 42 215 19 407 35 428 35 51 0
99 -24 120 -59 9 -16 73 -223 142 -461 134 -463 161 -531 253 -646 87 -108
225 -201 357 -240 93 -28 268 -26 365 4 195 61 324 158 356 268 21 75 20 85
-66 529 -285 1467 -500 2358 -891 3693 -138 473 -204 702 -248 876 -79 304
-190 609 -325 891 -178 371 -353 541 -671 652 -133 46 -232 64 -390 68 -141 4
-164 2 -374 -35z m204 -1498 c26 -39 48 -95 215 -537 256 -681 497 -1449 655
-2085 36 -146 51 -192 96 -292 70 -153 62 -235 -23 -256 -24 -6 -182 -25 -353
-42 -278 -28 -501 -55 -742 -92 -57 -8 -91 -9 -110 -2 l-28 10 2 149 c9 495
114 2042 202 2961 17 180 27 222 53 224 4 0 19 -17 33 -38z"/>
<path d="M29475 13502 c-234 -10 -1239 -75 -1365 -87 -554 -54 -1671 -201
-1824 -241 -348 -90 -557 -283 -582 -538 -7 -76 24 -229 60 -290 73 -124 232
-211 406 -223 81 -5 102 -1 426 76 188 45 357 81 377 81 63 0 65 -11 82 -328
14 -273 19 -317 179 -1439 203 -1422 228 -1614 291 -2288 57 -604 113 -1017
225 -1645 124 -695 234 -1027 442 -1332 165 -242 349 -320 608 -258 217 52
386 182 484 370 75 146 105 285 116 540 9 233 -5 393 -75 815 -25 149 -54 344
-65 435 -32 259 -46 364 -94 680 -93 609 -171 1236 -237 1895 -22 226 -89 887
-150 1470 -107 1045 -121 1226 -96 1275 28 55 140 74 532 90 325 13 649 37
695 52 65 20 152 72 198 117 90 91 146 262 122 376 -24 117 -107 242 -200 300
-107 68 -335 108 -555 97z"/>
<path d="M23511 12910 c-197 -35 -234 -44 -305 -79 -149 -73 -257 -181 -330
-328 -55 -111 -148 -552 -211 -1004 -235 -1691 -327 -2968 -327 -4524 0 -761
12 -1165 48 -1562 34 -393 62 -486 178 -610 97 -104 229 -158 421 -170 240
-14 402 57 471 210 34 75 36 127 16 492 -14 270 -72 1669 -74 1786 -2 86 11
117 63 148 26 16 65 19 317 24 205 4 398 16 677 42 215 19 407 35 428 35 51 0
99 -24 120 -59 9 -16 73 -223 142 -461 134 -463 161 -531 253 -646 87 -108
225 -201 357 -240 93 -28 268 -26 365 4 195 61 324 158 356 268 21 75 20 85
-66 529 -285 1467 -500 2358 -891 3693 -138 473 -204 702 -248 876 -79 304
-190 609 -325 891 -178 371 -353 541 -671 652 -133 46 -232 64 -390 68 -141 4
-164 2 -374 -35z m204 -1498 c26 -39 48 -95 215 -537 256 -681 497 -1449 655
-2085 36 -146 51 -192 96 -292 70 -153 62 -235 -23 -256 -24 -6 -182 -25 -353
-42 -278 -28 -501 -55 -742 -92 -57 -8 -91 -9 -110 -2 l-28 10 2 149 c9 495
114 2042 202 2961 17 180 27 222 53 224 4 0 19 -17 33 -38z"/>
<path d="M19205 12444 c-487 -15 -726 -44 -1060 -129 -314 -80 -561 -239 -658
-423 -62 -118 -78 -199 -78 -397 1 -93 3 -195 6 -225 3 -30 9 -221 15 -425 26
-919 49 -1379 111 -2155 75 -955 181 -1815 325 -2640 25 -140 69 -402 100
-583 58 -348 123 -682 172 -887 90 -374 258 -720 462 -952 187 -212 447 -210
663 6 191 190 255 405 245 821 -4 155 -15 243 -133 1024 -91 605 -125 859
-118 870 20 32 75 60 131 66 498 56 925 234 1333 556 278 218 682 690 859
1001 187 329 303 748 301 1091 -1 176 -19 581 -32 702 -87 835 -340 1521 -734
1995 -77 92 -249 259 -332 323 -213 163 -485 284 -754 336 -119 23 -298 42
-374 40 -27 -1 -230 -8 -450 -15z m-55 -819 c333 -47 622 -199 831 -438 196
-226 401 -736 478 -1196 69 -410 44 -809 -75 -1171 -127 -387 -340 -669 -673
-892 -183 -122 -468 -254 -526 -244 -55 11 -102 76 -124 171 -6 28 -38 358
-72 735 -51 583 -61 738 -69 1045 -14 522 -50 1239 -86 1719 -12 156 -13 214
-5 233 25 54 122 65 321 38z"/>
</g>
</svg>
