<svg width="40" height="40" viewBox="0 0 40 40" fill="none" xmlns="http://www.w3.org/2000/svg">
    <path d="M31.6666 6.66667H8.33325C7.00717 6.66667 5.7354 7.19346 4.79772 8.13114C3.86004 9.06882 3.33325 10.3406 3.33325 11.6667V28.3333C3.33325 29.6594 3.86004 30.9312 4.79772 31.8689C5.7354 32.8066 7.00717 33.3333 8.33325 33.3333H31.6666C32.9927 33.3333 34.2644 32.8066 35.2021 31.8689C36.1398 30.9312 36.6666 29.6594 36.6666 28.3333V11.6667C36.6666 10.3406 36.1398 9.06882 35.2021 8.13114C34.2644 7.19346 32.9927 6.66667 31.6666 6.66667ZM31.6666 10L20.8333 17.45C20.5799 17.5963 20.2925 17.6733 19.9999 17.6733C19.7074 17.6733 19.42 17.5963 19.1666 17.45L8.33325 10H31.6666Z" fill="#336C78"/>
    </svg>
