<svg width="40" height="40" viewBox="0 0 40 40" fill="none" xmlns="http://www.w3.org/2000/svg">
<path d="M7.5 37.5H32.5V31.25C32.4974 28.9302 31.5746 26.7061 29.9343 25.0657C28.2939 23.4254 26.0698 22.5026 23.75 22.5H16.25C13.9302 22.5026 11.7061 23.4254 10.0657 25.0657C8.42537 26.7061 7.50265 28.9302 7.5 31.25V37.5Z" fill="#35560B"/>
<path d="M11.25 11.25C11.25 12.9806 11.7632 14.6723 12.7246 16.1112C13.6861 17.5502 15.0527 18.6717 16.6515 19.3339C18.2504 19.9962 20.0097 20.1695 21.707 19.8319C23.4044 19.4942 24.9635 18.6609 26.1872 17.4372C27.4109 16.2135 28.2442 14.6544 28.5819 12.957C28.9195 11.2597 28.7462 9.50037 28.0839 7.90152C27.4217 6.30267 26.3002 4.9361 24.8612 3.97464C23.4223 3.01318 21.7306 2.5 20 2.5C17.6794 2.5 15.4538 3.42187 13.8128 5.06282C12.1719 6.70376 11.25 8.92936 11.25 11.25Z" fill="#35560B"/>
</svg>
